<svg width="1920" height="92" viewBox="0 0 1920 92" fill="none" xmlns="http://www.w3.org/2000/svg">
<path d="M0 36C31.5 36 53 59 77.75 59C102.5 59 126.5 33 155.5 33C184.5 33 204 59 233.25 59C262.5 59 281 36 311 36C342.5 36 364 59 388.75 59C413.5 59 437.5 33 466.5 33C495.5 33 515 59 544.25 59C573.5 59 592 36 622 36C653.5 36 675 59 699.75 59C724.5 59 748.5 33 777.5 33C806.5 33 826 59 855.25 59C884.5 59 903 36 933 36C964.5 36 986 59 1010.75 59C1035.5 59 1059.5 33 1088.5 33C1117.5 33 1137 59 1166.25 59C1195.5 59 1214 36 1244 36C1275.5 36 1297 59 1321.75 59C1346.5 59 1370.5 33 1399.5 33C1428.5 33 1448 59 1477.25 59C1506.5 59 1525 36 1555 36C1586.5 36 1608 59 1632.75 59C1657.5 59 1681.5 33 1710.5 33C1739.5 33 1759 59 1788.25 59C1817.5 59 1836 36 1866 36M1865 36C1896.5 36 1918 59 1942.75 59C1967.5 59 1991.5 33 2020.5 33C2049.5 33 2069 59 2098.25 59C2127.5 59 2146 36 2176 36" stroke="#0047BB" stroke-width="65"/>
</svg>
