<svg width="1920" height="92" viewBox="0 0 1920 92" fill="none" xmlns="http://www.w3.org/2000/svg">
<path d="M0 36C27.7941 36 46.7647 59 68.6029 59C90.4412 59 111.618 33 137.206 33C162.794 33 180 59 205.809 59C231.618 59 247.941 36 274.412 36C302.206 36 321.176 59 343.015 59C364.853 59 386.029 33 411.618 33C437.206 33 454.412 59 480.221 59C506.029 59 522.353 36 548.824 36C576.618 36 595.588 59 617.426 59C639.265 59 660.441 33 686.029 33C711.618 33 728.824 59 754.632 59C780.441 59 796.765 36 823.235 36C851.029 36 870 59 891.838 59C913.676 59 934.853 33 960.441 33C986.029 33 1003.24 59 1029.04 59C1054.85 59 1071.18 36 1097.65 36C1125.44 36 1144.41 59 1166.25 59C1188.09 59 1209.26 33 1234.85 33C1260.44 33 1277.65 59 1303.46 59C1329.26 59 1345.59 36 1372.06 36C1399.85 36 1418.82 59 1440.66 59C1462.5 59 1483.68 33 1509.26 33C1534.85 33 1552.06 59 1577.87 59C1603.68 59 1620 36 1646.47 36M1645.59 36C1673.38 36 1692.35 59 1714.19 59C1736.03 59 1757.21 33 1782.79 33C1808.38 33 1825.59 59 1851.4 59C1877.21 59 1893.53 36 1920 36" stroke="#0047BB" stroke-width="65"/>
</svg>
