<svg width="559" height="118" viewBox="0 0 559 118" fill="none" xmlns="http://www.w3.org/2000/svg">
<path d="M21.1345 80.3268C22.6323 81.1108 23.9914 81.7117 25.2118 82.1294C26.421 82.5059 27.5233 82.7347 28.5188 82.8158C29.5554 82.8857 30.4853 82.8079 31.3083 82.5824C32.3782 82.2892 33.1391 81.8374 33.5912 81.2269C34.032 80.5752 34.1396 79.8379 33.9141 79.0149C33.7112 78.2742 33.2951 77.7246 32.666 77.3661C32.0668 76.9552 31.2582 76.668 30.2401 76.5046C29.2221 76.3411 27.9515 76.2248 26.4284 76.1555C24.9763 76.0225 23.5428 75.796 22.1279 75.4758C20.7017 75.1145 19.4249 74.4911 18.2974 73.6056C17.1999 72.6676 16.4087 71.3139 15.9238 69.5445C15.4616 67.8573 15.5252 66.3136 16.1148 64.9134C16.6931 63.472 17.6646 62.2546 19.0293 61.2613C20.4238 60.2156 22.0676 59.4334 23.9605 58.9148C25.5653 58.475 27.1237 58.2692 28.6355 58.2974C30.1474 58.3255 31.5958 58.5258 32.9808 58.8984C34.3546 59.2298 35.6181 59.7241 36.7715 60.3814L34.6062 66.2834C33.273 65.4542 31.7905 64.8872 30.1586 64.5823C28.5678 64.2661 27.0934 64.2941 25.7355 64.6662C24.8302 64.9142 24.1608 65.2967 23.7273 65.8136C23.3237 66.2781 23.2178 66.8602 23.4095 67.5597C23.5786 68.177 23.9777 68.6648 24.6068 69.0233C25.2658 69.3294 26.1192 69.5379 27.1672 69.6489C28.2562 69.7487 29.4913 69.8969 30.8724 70.0936C32.5528 70.2525 34.1323 70.5275 35.6109 70.9187C37.1194 71.2574 38.4111 71.8546 39.4861 72.7103C40.5611 73.566 41.3354 74.8579 41.809 76.5862C42.587 79.4256 42.27 81.9014 40.858 84.0136C39.4347 86.0847 37.0976 87.5656 33.8468 88.4564C31.8305 89.0088 29.9054 89.2488 28.0717 89.1761C26.2791 89.0922 24.5855 88.8042 22.9907 88.3121C21.4259 87.7676 19.9676 87.1276 18.6158 86.392L21.1345 80.3268Z" fill="#0047BB"/>
<path d="M51.902 67.695C52.2702 69.3615 52.9673 70.7368 53.9933 71.821C55.0194 72.9052 56.2356 73.6633 57.6419 74.0954C59.0899 74.5183 60.5847 74.5595 62.1261 74.2189C63.376 73.9428 64.5428 73.4884 65.6265 72.8557C66.701 72.1813 67.6229 71.4096 68.3921 70.5405C69.1939 69.6206 69.7435 68.6471 70.0409 67.6201L71.8772 75.9316C71.0799 77.0691 69.9286 78.0881 68.4234 78.9887C66.9507 79.8384 65.152 80.498 63.0272 80.9674C59.9859 81.6394 57.0982 81.622 54.364 80.9152C51.6714 80.1992 49.3684 78.8728 47.4548 76.936C45.5737 74.9483 44.3064 72.4755 43.6529 69.5175C42.9902 66.5178 43.0977 63.7413 43.9755 61.1878C44.895 58.6251 46.4248 56.4518 48.5651 54.6681C50.747 52.8752 53.3586 51.6428 56.3999 50.9708C58.5247 50.5014 60.4385 50.3626 62.1413 50.5544C63.8766 50.6954 65.3408 51.0929 66.534 51.7469L68.3703 60.0584C67.6679 59.2523 66.7431 58.6264 65.5959 58.1807C64.4812 57.6842 63.2992 57.3773 62.0498 57.2601C60.8004 57.1428 59.5924 57.2131 58.4259 57.4708C56.8844 57.8114 55.5507 58.4993 54.4249 59.5346C53.3315 60.5189 52.5479 61.7189 52.0742 63.1345C51.6004 64.55 51.543 66.0702 51.902 67.695Z" fill="#0047BB"/>
<path d="M79.4732 26.2437L87.5468 75.5065L79.3363 76.8521L71.2627 27.5893L79.4732 26.2437ZM95.1959 56.0938C94.8784 54.157 94.258 52.7454 93.3345 51.8591C92.4531 50.9659 91.1492 50.6607 89.4229 50.9437C88.2861 51.13 87.317 51.5482 86.5156 52.1984C85.7073 52.8065 85.144 53.5906 84.8258 54.5507C84.5075 55.5108 84.4484 56.6013 84.6486 57.8224L83.0065 58.0915C82.6269 55.7757 82.6643 53.6294 83.1186 51.6526C83.6149 49.6689 84.5524 48.002 85.9308 46.6519C87.3093 45.3019 89.1354 44.4406 91.409 44.0679C93.6827 43.6953 95.6254 43.8093 97.2371 44.4099C98.8488 45.0104 100.15 46.0942 101.142 47.6611C102.127 49.1858 102.816 51.1482 103.21 53.5482L106.305 72.4323L98.0941 73.7779L95.1959 56.0938Z" fill="#0047BB"/>
<path d="M127.399 70.7591C124.214 71.0661 121.37 70.6971 118.869 69.6522C116.368 68.6072 114.351 67.0228 112.817 64.8987C111.322 62.7281 110.425 60.0927 110.127 56.9924C109.824 53.8496 110.201 51.0913 111.258 48.7177C112.354 46.2974 114.031 44.3569 116.291 42.8961C118.547 41.3928 121.288 40.4857 124.516 40.1746C127.744 39.8636 130.54 40.1942 132.906 41.1665C135.31 42.0922 137.215 43.6232 138.621 45.7595C140.023 47.8533 140.875 50.4717 141.178 53.6144C141.215 53.9967 141.232 54.4022 141.231 54.831C141.272 55.2557 141.283 55.5975 141.265 55.8564L115.019 58.3855L114.528 53.2891L133.575 51.4537L131.628 54.5989C131.774 54.3278 131.889 53.9737 131.976 53.5367C132.101 53.0532 132.149 52.6627 132.12 52.3654C131.981 50.9215 131.586 49.7164 130.936 48.7504C130.328 47.7802 129.507 47.0449 128.473 46.5444C127.439 46.044 126.264 45.8572 124.947 45.9841C123.333 46.1396 122.009 46.6315 120.974 47.4599C119.978 48.2417 119.25 49.3621 118.791 50.8209C118.369 52.2331 118.236 53.9606 118.39 56.0032C118.578 57.9568 119.014 59.5865 119.697 60.8924C120.422 62.1941 121.393 63.1507 122.61 63.7622C123.826 64.3737 125.241 64.6017 126.855 64.4462C128.681 64.2702 130.198 63.7811 131.407 62.9788C132.654 62.1299 133.635 60.9638 134.349 59.4805L141.762 61.0165C140.5 63.9244 138.662 66.2018 136.248 67.8489C133.874 69.4494 130.924 70.4195 127.399 70.7591Z" fill="#0047BB"/>
<path d="M168.479 18.2079L176.799 18.1216L177.317 68.039L168.997 68.1253L168.479 18.2079ZM144.654 53.6569C144.62 50.3718 145.252 47.5917 146.551 45.3168C147.85 42.9992 149.581 41.2318 151.745 40.0147C153.908 38.7975 156.206 38.1763 158.638 38.1511C161.112 38.1254 163.294 38.7215 165.185 39.9393C167.117 41.1566 168.629 42.9117 169.719 45.2045C170.852 47.4542 171.435 50.179 171.468 53.3788C171.501 56.536 170.975 59.2723 169.889 61.5876C168.847 63.9026 167.372 65.6886 165.465 66.9458C163.6 68.2026 161.431 68.8438 158.956 68.8694C156.524 68.8946 154.214 68.3212 152.026 67.1492C149.838 65.9772 148.07 64.2461 146.724 61.9559C145.377 59.6658 144.687 56.8994 144.654 53.6569ZM153.229 53.568C153.247 55.3172 153.626 56.8281 154.364 58.1005C155.103 59.3729 156.094 60.344 157.339 61.0138C158.583 61.6836 159.909 62.0112 161.317 61.9966C162.554 61.9837 163.746 61.6514 164.891 60.9995C166.078 60.3044 167.028 59.3132 167.74 58.0257C168.495 56.7378 168.863 55.1979 168.844 53.406C168.826 51.6141 168.426 50.0822 167.645 48.8102C166.906 47.5378 165.936 46.5878 164.735 45.9603C163.576 45.2896 162.378 44.9607 161.141 44.9735C159.733 44.9881 158.414 45.3431 157.183 46.0386C155.953 46.734 154.982 47.7255 154.27 49.013C153.558 50.3004 153.211 51.8188 153.229 53.568Z" fill="#0047BB"/>
<path d="M194.482 57.6559C194.331 59.5699 194.596 61.0888 195.278 62.2125C195.963 63.2937 197.157 63.9014 198.858 64.0356C200.049 64.1295 201.088 63.976 201.976 63.5752C202.909 63.1352 203.645 62.4871 204.184 61.6307C204.764 60.7777 205.103 59.7345 205.201 58.501L206.609 40.6364L214.84 41.2854L212.526 70.6343L204.295 69.9854L204.647 65.5192C203.581 67.1043 202.289 68.2864 200.773 69.0656C199.259 69.8023 197.461 70.0885 195.376 69.9241C191.889 69.6491 189.352 68.4433 187.765 66.3067C186.221 64.1734 185.587 61.3628 185.862 57.875L187.341 39.1172L195.891 39.7913L194.482 57.6559Z" fill="#0047BB"/>
<path d="M225.796 22.0315L234.056 23.0301L228.064 72.5892L219.804 71.5906L225.796 22.0315Z" fill="#0047BB"/>
<path d="M249.197 76.1676C246.032 75.6964 243.362 74.6518 241.187 73.0339C239.013 71.4161 237.438 69.3914 236.462 66.9599C235.536 64.4926 235.301 61.7185 235.76 58.6378C236.225 55.5149 237.257 52.9293 238.856 50.8811C240.504 48.797 242.6 47.319 245.146 46.447C247.697 45.5328 250.577 45.3144 253.784 45.7919C256.992 46.2694 259.626 47.2655 261.686 48.7801C263.796 50.2588 265.275 52.2045 266.123 54.6171C266.978 56.9875 267.173 59.7341 266.708 62.857C266.652 63.2368 266.571 63.6346 266.466 64.0504C266.403 64.4724 266.332 64.8068 266.252 65.0538L240.171 61.171L240.925 56.1068L259.852 58.9246L257.203 61.5067C257.41 61.2786 257.608 60.963 257.797 60.5598C258.035 60.1207 258.176 59.7535 258.22 59.4581C258.434 58.0232 258.342 56.7586 257.944 55.664C257.588 54.5758 256.969 53.664 256.086 52.9287C255.204 52.1934 254.108 51.7283 252.8 51.5336C251.196 51.2948 249.792 51.4525 248.588 52.0065C247.433 52.5247 246.456 53.4361 245.658 54.7408C244.908 56.0096 244.361 57.6537 244.018 59.6731C243.729 61.6143 243.758 63.301 244.106 64.7332C244.495 66.1716 245.206 67.3343 246.239 68.2214C247.272 69.1084 248.59 69.6713 250.194 69.9101C252.008 70.1802 253.599 70.072 254.965 69.5852C256.38 69.0626 257.614 68.1677 258.665 66.9007L265.488 70.1813C263.561 72.6982 261.227 74.4645 258.488 75.4802C255.797 76.4599 252.7 76.6891 249.197 76.1676Z" fill="#0047BB"/>
<path d="M286.945 66.6465C287.436 63.6141 288.562 61.0733 290.32 59.0243C292.121 56.9822 294.324 55.5239 296.929 54.6496C299.577 53.7821 302.438 53.5975 305.512 54.0959C308.587 54.5943 311.222 55.6699 313.418 57.3225C315.656 58.982 317.286 61.0616 318.307 63.5612C319.37 66.0677 319.656 68.8371 319.164 71.8695C318.68 74.8598 317.533 77.3971 315.726 79.4814C313.967 81.5304 311.764 82.9886 309.117 83.8562C306.511 84.7305 303.671 84.9185 300.597 84.4201C297.522 83.9216 294.866 82.8427 292.628 81.1832C290.432 79.5305 288.803 77.451 287.739 74.9445C286.725 72.4028 286.46 69.6368 286.945 66.6465ZM295.284 67.9983C295.018 69.6409 295.119 71.1485 295.588 72.5213C296.106 73.8587 296.897 74.981 297.96 75.8882C299.03 76.7532 300.281 77.3018 301.713 77.5339C303.145 77.7661 304.505 77.6408 305.794 77.1581C307.089 76.6333 308.173 75.8148 309.044 74.7027C309.965 73.5552 310.559 72.1602 310.825 70.5177C311.091 68.8751 310.969 67.364 310.458 65.9845C309.989 64.6117 309.219 63.4928 308.149 62.6278C307.079 61.7627 305.828 61.2142 304.396 60.982C302.964 60.7499 301.604 60.8752 300.315 61.3579C299.027 61.8406 297.922 62.6556 297.001 63.8031C296.123 64.9573 295.55 66.3558 295.284 67.9983Z" fill="#0047BB"/>
<path d="M325.198 57.8802L343.455 60.4106L342.498 67.3205L324.24 64.7901L325.198 57.8802ZM344.237 48.2427C343.902 47.5502 343.475 47.0602 342.955 46.7728C342.483 46.4489 341.993 46.2518 341.486 46.1815C340.852 46.0937 340.279 46.1866 339.768 46.4602C339.304 46.6975 338.896 47.1578 338.542 47.8411C338.189 48.5244 337.936 49.4155 337.784 50.5143L332.504 88.6142L324.579 87.5159L330.115 47.5776C330.425 45.3377 331.066 43.5097 332.038 42.0937C333.009 40.6777 334.312 39.6736 335.944 39.0815C337.583 38.4471 339.501 38.2822 341.699 38.5868C343.009 38.7684 344.105 39.0927 344.988 39.5596C345.877 39.9843 346.606 40.473 347.176 41.0258C347.788 41.5844 348.254 42.1014 348.576 42.5767L344.237 48.2427Z" fill="#0047BB"/>
<path d="M376.886 93.2369C373.687 93.1572 370.909 92.4478 368.552 91.1087C366.196 89.7696 364.384 87.9532 363.118 85.6597C361.896 83.3245 361.324 80.6001 361.401 77.4864C361.48 74.33 362.187 71.6375 363.523 69.4087C364.903 67.1384 366.802 65.4145 369.222 64.237C371.642 63.0169 374.473 62.4473 377.715 62.5281C380.957 62.6088 383.693 63.2745 385.924 64.5251C388.198 65.7342 389.905 67.4839 391.043 69.7743C392.182 72.022 392.712 74.724 392.633 77.8804C392.624 78.2643 392.592 78.669 392.539 79.0944C392.528 79.521 392.499 79.8617 392.45 80.1165L366.09 79.4598L366.217 74.3413L385.347 74.818L383.035 77.7053C383.212 77.4536 383.369 77.1161 383.508 76.6927C383.69 76.2278 383.785 75.846 383.793 75.5475C383.829 74.0973 383.582 72.8534 383.053 71.8159C382.567 70.7795 381.841 69.9505 380.875 69.3289C379.908 68.7073 378.764 68.38 377.442 68.3471C375.821 68.3067 374.447 68.6352 373.32 69.3327C372.237 69.9886 371.379 71.0129 370.747 72.4056C370.158 73.7567 369.817 75.4554 369.724 77.5017C369.675 79.4637 369.911 81.1341 370.431 82.5128C370.994 83.8926 371.842 84.9594 372.976 85.7132C374.11 86.467 375.487 86.8641 377.108 86.9045C378.942 86.9502 380.507 86.6477 381.804 85.9972C383.144 85.305 384.258 84.2658 385.146 82.8795L392.32 85.2989C390.716 88.0331 388.616 90.0721 386.022 91.4159C383.472 92.7181 380.426 93.3251 376.886 93.2369Z" fill="#0047BB"/>
<path d="M395.378 63.3289L404.273 63.1932L411.775 80.8088L418.736 62.9725L427.631 62.8367L412.001 95.5911L395.378 63.3289Z" fill="#0047BB"/>
<path d="M447.939 91.792C444.746 92.0046 441.915 91.5518 439.446 90.4334C436.977 89.3151 435.008 87.6717 433.538 85.5032C432.107 83.2894 431.289 80.6286 431.082 77.5208C430.872 74.3705 431.33 71.6246 432.457 69.2832C433.624 66.8964 435.358 65.0063 437.66 63.6129C439.959 62.1769 442.726 61.3512 445.961 61.1356C449.197 60.9201 451.983 61.3332 454.318 62.3749C456.694 63.3713 458.553 64.9579 459.895 67.1348C461.234 69.2692 462.009 71.9115 462.219 75.0619C462.244 75.445 462.25 75.8509 462.236 76.2795C462.264 76.7052 462.266 77.0472 462.24 77.3055L435.93 79.058L435.59 73.9493L454.684 72.6774L452.644 75.7638C452.798 75.497 452.924 75.1465 453.023 74.7123C453.162 74.2327 453.222 73.8438 453.202 73.5458C453.106 72.0984 452.747 70.8822 452.125 69.8973C451.546 68.9096 450.748 68.1504 449.729 67.6196C448.71 67.0888 447.541 66.8674 446.221 66.9553C444.603 67.063 443.265 67.5156 442.206 68.3131C441.187 69.0651 440.427 70.1635 439.924 71.608C439.461 73.0072 439.277 74.73 439.37 76.7763C439.501 78.7346 439.888 80.3765 440.532 81.7019C441.219 83.0246 442.161 84.0094 443.359 84.6566C444.557 85.3038 445.964 85.5735 447.582 85.4657C449.413 85.3438 450.944 84.8997 452.176 84.1335C453.447 83.3218 454.462 82.1852 455.22 80.7236L462.585 82.478C461.236 85.3473 459.332 87.5694 456.871 89.1445C454.45 90.6741 451.473 91.5566 447.939 91.792Z" fill="#0047BB"/>
<path d="M487.333 68.7164C487.041 66.7757 486.439 65.3563 485.527 64.4582C484.615 63.5601 483.315 63.2382 481.627 63.4926C480.488 63.6643 479.514 64.0701 478.704 64.7099C477.888 65.3076 477.315 66.0844 476.984 67.0403C476.654 67.9963 476.58 69.086 476.765 70.3095L479.436 88.0293L471.209 89.2694L466.821 60.1583L475.048 58.9182L475.716 63.3481C476.354 61.5692 477.326 60.1497 478.633 59.0897C479.977 57.9811 481.682 57.271 483.749 56.9594C487.209 56.4379 489.932 57.0414 491.918 58.77C493.898 60.4563 495.152 63.0504 495.68 66.5522L498.485 85.158L490.005 86.4362L487.333 68.7164Z" fill="#0047BB"/>
<path d="M498.324 55.0988L516.056 51.1046L517.589 57.9101L499.857 61.9043L498.324 55.0988ZM501.007 43.998L508.811 42.24L517.531 80.9501L509.726 82.7081L501.007 43.998Z" fill="#0047BB"/>
<path d="M527.35 68.061C528.859 68.8232 530.226 69.4042 531.453 69.8041C532.667 70.1631 533.773 70.3759 534.769 70.4425C535.807 70.4973 536.736 70.406 537.555 70.1686C538.621 69.8599 539.375 69.3971 539.818 68.7801C540.249 68.1221 540.346 67.3833 540.109 66.5636C539.895 65.826 539.471 65.2825 538.837 64.9332C538.232 64.531 537.419 64.2556 536.399 64.1069C535.379 63.9583 534.106 63.8604 532.582 63.8132C531.129 63.7014 529.692 63.4956 528.273 63.1961C526.841 62.8555 525.556 62.2507 524.415 61.3817C523.304 60.4597 522.494 59.1177 521.983 57.3554C521.496 55.6752 521.538 54.1307 522.107 52.7221C522.664 51.2724 523.618 50.0411 524.968 49.0281C526.347 47.9622 527.979 47.1563 529.864 46.6102C531.463 46.1472 533.018 45.9187 534.53 45.9249C536.042 45.9311 537.493 46.1104 538.884 46.4628C540.262 46.7742 541.533 47.2502 542.695 47.8906L540.616 53.8234C539.271 53.0137 537.78 52.4683 536.144 52.1871C534.549 51.894 533.075 51.9434 531.723 52.3352C530.821 52.5963 530.157 52.9885 529.732 53.5117C529.335 53.982 529.237 54.5655 529.439 55.2622C529.617 55.8769 530.023 56.3589 530.658 56.7083C531.321 57.0047 532.177 57.2009 533.227 57.2966C534.317 57.3806 535.554 57.5108 536.938 57.6874C538.621 57.8219 540.204 58.074 541.688 58.4436C543.201 58.7604 544.501 59.3388 545.589 60.1788C546.676 61.0187 547.469 62.2993 547.968 64.0206C548.787 66.8483 548.506 69.3284 547.125 71.461C545.732 73.5525 543.416 75.0672 540.179 76.0051C538.171 76.5868 536.249 76.8546 534.415 76.8086C532.621 76.7507 530.923 76.4873 529.322 76.0185C527.749 75.4968 526.282 74.878 524.919 74.1621L527.35 68.061Z" fill="#0047BB"/>
</svg>
